<svg xmlns="http://www.w3.org/2000/svg" width="20" height="20" viewBox="0 0 20 20" fill="none">
  <mask id="mask0_15_2827" style="mask-type:alpha" maskUnits="userSpaceOnUse" x="0" y="0" width="20" height="20">
    <rect width="20" height="20" fill="#D9D9D9"/>
  </mask>
  <g mask="url(#mask0_15_2827)">
    <path d="M9.99998 10.774L6.43906 14.3349C6.32369 14.4503 6.1995 14.5059 6.06648 14.5016C5.93348 14.4973 5.80662 14.4348 5.6859 14.3141C5.56516 14.1934 5.50479 14.0644 5.50479 13.9271C5.50479 13.7898 5.56516 13.6608 5.6859 13.5401L9.22596 10L5.66506 6.43908C5.54968 6.32371 5.49412 6.19604 5.4984 6.05608C5.50266 5.91614 5.56516 5.7858 5.6859 5.66508C5.80662 5.54435 5.93562 5.48398 6.0729 5.48398C6.21018 5.48398 6.33918 5.54435 6.4599 5.66508L9.99998 9.22598L13.5609 5.66508C13.6763 5.54969 13.8039 5.49067 13.9439 5.488C14.0838 5.48532 14.2142 5.54435 14.3349 5.66508C14.4556 5.7858 14.516 5.9148 14.516 6.05208C14.516 6.18936 14.4556 6.31836 14.3349 6.43908L10.774 10L14.3349 13.5609C14.4503 13.6763 14.5093 13.8005 14.512 13.9335C14.5147 14.0665 14.4556 14.1934 14.3349 14.3141C14.2142 14.4348 14.0852 14.4952 13.9479 14.4952C13.8106 14.4952 13.6816 14.4348 13.5609 14.3141L9.99998 10.774Z" fill="white"/>
  </g>
</svg>